<svg xmlns="http://www.w3.org/2000/svg" width="150" height="50" viewBox="0,0,150,50"><path fill="red" d="M56.46 19.63L56.51 19.69L56.47 19.65Q54.52 19.79 53.57 19.94L53.48 19.85L53.48 19.85Q52.02 20.26 50.80 20.79L50.73 20.72L50.64 20.63Q47.27 22.20 47.15 26.89L47.02 26.75L47.12 26.86Q46.93 29.41 47.58 32.34L47.71 32.47L47.67 32.43Q48.46 36.38 52.08 37.56L52.10 37.58L52.13 37.61Q54.02 38.17 55.47 38.02L55.41 37.96L55.84 37.93L56.00 38.10Q56.16 38.07 56.36 38.11L56.40 38.15L56.40 38.15Q56.44 38.04 56.59 38.00L56.59 38.00L56.55 37.96Q59.20 37.71 60.57 37.14L60.60 37.18L57.08 33.70L57.08 33.69Q57.47 33.43 58.08 32.82L57.89 32.63L58.91 31.83L58.92 31.84Q60.71 33.86 62.69 35.92L62.74 35.96L62.77 35.99Q64.95 34.02 65.21 28.65L65.25 28.69L65.23 28.67Q65.43 27.88 65.43 26.97L65.37 26.91L65.39 26.92Q65.27 21.14 60.21 20.03L60.30 20.13L60.27 20.09Q59.06 19.87 56.55 19.72ZM69.32 41.78L69.20 41.67L69.34 41.81Q68.73 42.22 67.55 43.10L67.51 43.05L63.10 39.37L63.13 39.40Q60.62 40.58 56.35 40.62L56.39 40.66L56.26 40.53Q49.86 40.78 47.04 38.54L46.92 38.42L47.04 38.53Q45.24 36.73 44.78 33.77L44.65 33.63L44.81 33.79Q44.53 31.91 44.15 28.33L44.21 28.40L44.10 28.29Q44.13 27.60 44.02 25.84L44.15 25.97L44.05 25.87Q43.82 24.23 43.85 23.36L43.86 23.36L43.84 23.35Q44.02 20.37 45.77 18.80L45.72 18.76L45.87 18.90Q47.26 17.44 50.46 16.95L50.44 16.93L50.44 16.93Q52.96 16.59 55.85 16.67L55.86 16.67L55.98 16.80Q63.35 16.78 66.47 19.14L66.48 19.15L66.55 19.21Q68.63 21.26 68.36 26.17L68.47 26.27L68.43 26.23Q68.30 29.96 68.11 31.29L68.00 31.17L68.11 31.28Q67.47 35.78 65.14 38.10L65.11 38.07L65.05 38.01Q66.47 39.20 69.21 41.67ZM64.40 17.45L64.34 17.38L64.41 17.46Q62.50 16.84 55.99 16.34L55.95 16.30L55.87 16.22Q54.50 16.27 51.72 16.38L51.65 16.31L51.75 16.41Q47.57 16.68 45.33 18.66L45.29 18.62L45.31 18.65Q43.51 19.97 43.51 23.13L43.65 23.27L43.64 23.26Q43.53 23.99 43.68 25.70L43.82 25.83L43.78 25.79Q43.80 27.38 43.80 28.25L43.85 28.30L43.93 28.38Q43.98 30.03 44.36 33.61L44.35 33.60L44.39 33.64Q44.73 36.49 46.33 38.55L46.32 38.54L46.32 38.54Q46.62 39.34 47.84 40.48L47.97 40.61L47.91 40.55Q50.77 42.68 55.95 42.95L55.88 42.89L55.88 42.89Q56.22 42.88 58.62 43.00L58.62 43.00L58.51 42.89Q63.30 43.04 65.59 41.97L65.63 42.01L65.61 41.99Q66.65 42.84 71.37 46.42L71.33 46.38L71.28 46.33Q71.93 45.83 73.22 44.84L73.13 44.75L73.24 44.87Q72.38 44.19 71.58 43.51L71.47 43.40L69.88 42.00L69.95 41.92L69.89 41.85Q69.34 41.42 68.12 40.39L68.07 40.34L68.20 40.47Q70.07 37.92 70.07 33.39L70.01 33.34L70.09 33.42Q70.10 33.00 70.13 32.17L70.00 32.03L70.14 32.17Q70.04 31.20 70.04 30.78L70.16 30.90L70.11 30.85Q70.05 25.26 69.32 22.90L69.48 23.06L69.44 23.02Q69.00 21.67 68.13 20.60L68.22 20.70L68.08 20.55Q67.29 18.43 64.35 17.40ZM58.38 22.01L58.42 22.05L58.47 22.10Q62.54 22.02 64.37 23.62L64.35 23.60L64.25 23.51Q64.90 24.80 65.01 26.13L64.90 26.01L64.94 26.05Q65.09 27.39 65.01 28.76L65.00 28.75L64.89 28.64Q64.64 33.67 62.70 35.39L62.73 35.42L62.75 35.44Q61.36 34.05 58.85 31.31L58.92 31.39L58.92 31.38Q58.03 32.01 56.47 33.57L56.45 33.55L56.53 33.64Q57.03 34.18 58.17 35.36L58.29 35.47L58.16 35.46L58.22 35.51Q58.84 36.10 59.87 37.16L59.73 37.02L59.69 36.99Q58.71 37.26 56.39 37.57L56.41 37.59L55.85 37.56L55.54 37.67L55.47 37.64L55.50 37.67Q52.14 37.77 50.16 36.14L50.05 36.03L50.05 36.02Q49.11 34.02 49.15 30.90L49.05 30.81L49.00 30.75Q49.18 22.06 58.36 21.99Z"/><path fill="red" d="M30.91 30.82L31.01 30.92L30.93 30.84Q31.08 29.47 30.26 28.55L30.17 28.46L30.25 28.54Q29.43 27.63 27.99 27.67L27.90 27.58L27.90 27.58Q25.60 27.68 24.76 29.81L24.82 29.87L24.77 29.82Q24.61 30.73 24.57 31.41L24.55 31.39L24.48 31.32Q24.21 36.11 23.29 40.45L23.30 40.45L23.32 40.48Q21.66 41.02 19.79 42.01L19.75 41.97L19.77 41.99Q22.14 35.11 21.87 27.80L21.92 27.84L21.85 27.77Q21.49 20.33 18.94 13.52L19.05 13.63L18.97 13.56Q20.86 14.99 22.88 15.67L22.90 15.70L22.77 15.56Q24.30 21.43 24.49 27.29L24.39 27.19L24.54 27.34Q25.85 25.19 28.55 25.27L28.59 25.30L28.62 25.33Q33.52 25.25 33.64 30.62L33.74 30.72L33.64 30.62Q33.89 36.43 35.26 41.07L35.27 41.08L35.21 41.02Q33.32 40.16 31.57 39.97L31.73 40.13L31.70 40.10Q31.16 36.82 31.04 30.95ZM31.38 40.43L31.34 40.39L31.31 40.36Q32.33 40.47 33.44 40.73L33.45 40.75L33.54 40.84Q33.40 40.81 33.94 42.79L34.08 42.93L34.04 42.89Q37.09 43.93 39.10 45.37L38.97 45.24L39.03 45.30Q36.35 39.54 35.82 33.22L35.71 33.11L35.69 33.09Q35.41 29.42 34.00 27.85L34.03 27.89L34.00 27.86Q34.00 27.78 33.35 27.32L33.37 27.34L33.43 27.40Q33.23 26.93 32.58 26.17L32.58 26.17L32.56 26.07L32.48 25.99Q31.71 25.23 28.59 24.96L28.59 24.96L28.53 24.90Q27.83 24.93 26.43 25.27L26.40 25.24L26.43 25.28Q26.28 20.48 25.93 17.96L25.89 17.92L25.91 17.94Q25.10 17.78 23.62 17.48L23.58 17.44L23.62 17.48Q23.51 16.80 23.25 15.31L23.14 15.21L23.21 15.28Q20.17 14.22 18.30 12.66L18.34 12.69L18.42 12.78Q21.32 19.86 21.59 27.67L21.58 27.65L21.45 27.53Q21.89 35.46 19.33 42.81L19.33 42.80L19.31 42.78Q20.28 42.23 21.42 41.73L21.35 41.66L20.68 44.00L20.63 43.96Q23.71 42.58 25.69 42.39L25.79 42.49L25.72 42.42Q26.37 37.10 26.56 33.14L26.50 33.08L26.55 33.12Q26.52 31.16 28.46 30.05L28.62 30.20L28.50 30.09Q29.08 29.91 29.61 29.94L29.49 29.82L29.53 29.86Q29.71 29.88 30.05 29.92L30.08 29.96L30.44 29.97L30.48 30.01Q30.54 30.45 30.66 30.91L30.69 30.94L30.55 30.80Q30.79 36.90 31.28 40.33Z"/><path fill="red" d="M115.48 40.96L115.53 41.01L115.49 40.97Q111.40 29.80 106.26 24.82L106.12 24.67L106.14 24.69Q107.59 25.31 110.56 25.95L110.62 26.01L110.54 25.94Q114.23 30.01 116.78 36.67L116.72 36.60L116.82 36.70Q119.45 29.32 122.07 26.28L121.95 26.15L122.11 26.31Q123.89 25.99 126.32 25.31L126.41 25.40L126.47 25.46Q123.31 28.20 121.14 32.77L121.13 32.76L121.14 32.77Q120.75 33.40 117.36 41.01L117.34 41.00L117.26 40.92Q116.74 41.08 115.53 41.01ZM120.21 43.48L120.11 43.39L120.11 43.38Q123.45 31.07 128.02 26.39L128.04 26.42L126.48 26.84L126.49 26.85Q125.70 27.08 124.86 27.20L124.93 27.27L125.01 27.35Q125.40 26.86 126.22 25.98L126.22 25.99L126.14 25.90Q127.08 25.15 127.54 24.74L127.59 24.79L127.56 24.76Q125.32 25.37 121.89 25.87L121.95 25.92L121.91 25.89Q119.11 28.98 117.05 34.58L117.08 34.61L117.02 34.54Q115.37 30.35 113.55 27.87L113.60 27.93L113.13 27.99L113.10 27.96Q112.83 27.96 112.60 27.96L112.55 27.91L112.63 27.99Q112.39 27.64 110.68 25.58L110.63 25.52L110.59 25.49Q107.33 25.09 105.09 23.95L105.06 23.92L105.05 23.91Q111.12 29.56 115.12 41.28L115.26 41.43L116.20 41.38L116.13 41.31Q116.65 42.13 117.49 43.43L117.40 43.33L118.84 43.41L118.77 43.34Q119.57 43.41 120.21 43.49Z"/><path d="M10 48 C83 10,74 49,132 6" stroke="#888" fill="none"/><path fill="red" d="M95.27 41.58L95.32 41.63L95.16 41.46Q93.18 41.20 91.01 41.05L90.97 41.01L90.91 40.95Q89.62 39.66 86.96 35.81L86.78 35.64L86.82 35.68Q84.57 38.72 82.17 41.16L82.22 41.21L80.12 41.58L80.24 41.70Q79.04 41.76 78.05 42.03L78.13 42.10L78.19 42.16Q82.26 37.94 85.27 33.83L85.38 33.93L85.36 33.91Q82.09 29.73 76.69 24.94L76.64 24.88L76.68 24.93Q78.97 25.73 81.67 26.15L81.67 26.15L81.56 26.04Q85.00 29.14 86.90 31.84L86.92 31.86L86.84 31.78Q89.05 28.81 91.79 26.29L91.72 26.23L91.85 26.36Q94.85 25.97 96.68 25.47L96.63 25.42L96.62 25.42Q92.10 29.08 88.41 33.65L88.34 33.58L88.54 33.78Q91.73 38.27 95.20 41.51ZM98.19 24.77L98.02 24.61L98.15 24.74Q95.12 25.44 91.58 25.78L91.72 25.92L91.68 25.88Q88.81 28.57 87.10 31.04L87.11 31.06L87.05 31.00Q86.29 30.09 84.65 28.11L84.51 27.96L84.32 27.96L84.41 28.05Q84.15 27.90 84.03 27.90L84.15 28.02L84.00 27.87Q83.32 27.11 81.68 25.67L81.68 25.67L81.79 25.78Q78.13 25.16 75.27 23.94L75.26 23.93L75.29 23.96Q80.74 28.68 84.77 33.82L84.92 33.97L84.82 33.87Q81.45 38.50 77.04 42.80L77.08 42.84L77.04 42.80Q77.33 42.75 80.83 41.91L80.70 41.78L80.86 41.94Q79.19 43.12 77.55 44.46L77.59 44.49L77.65 44.55Q80.82 43.61 83.98 43.42L84.02 43.46L83.97 43.41Q86.34 41.13 88.24 38.39L88.38 38.53L88.32 38.47Q89.77 40.27 90.99 41.45L90.97 41.43L90.98 41.44Q91.08 41.42 91.16 41.50L91.08 41.43L91.32 41.48L91.38 41.53Q92.47 42.47 93.80 43.54L93.87 43.60L93.92 43.65Q97.47 44.16 100.37 45.19L100.30 45.12L100.29 45.11Q94.16 40.70 90.47 35.52L90.59 35.64L90.47 35.52Q94.08 30.45 98.65 26.38L98.73 26.46L98.75 26.48Q97.73 26.75 96.74 26.98L96.71 26.95L94.76 27.48L94.67 27.39Q95.96 26.58 98.13 24.72Z"/></svg>